<?xml version="1.0" encoding="UTF-8" standalone="no"?>
<!DOCTYPE svg PUBLIC "-//W3C//DTD SVG 1.1//EN" "http://www.w3.org/Graphics/SVG/1.1/DTD/svg11.dtd">
<svg width="100%" height="100%" viewBox="0 0 105 113" version="1.1" xmlns="http://www.w3.org/2000/svg" xmlns:xlink="http://www.w3.org/1999/xlink" xml:space="preserve" xmlns:serif="http://www.serif.com/" style="fill-rule:evenodd;clip-rule:evenodd;stroke-linejoin:round;stroke-miterlimit:2;">
    <g transform="matrix(1,0,0,1,0,-0.1)">
        <g>
            <path d="M98.9,46.6L52.3,72.9L2.4,44.8L0,46.1L0,66.5L52.3,95.9L98.9,69.7L98.9,80.5L52.3,106.8L2.4,78.7L0,80L0,83.5L52.3,112.9L104.5,83.5L104.5,63.1L102.1,61.8L52.3,89.8L5.6,63.6L5.6,52.8L52.3,79L104.5,49.6L104.5,29.5L101.9,28L52.3,55.9L8,31.1L52.3,6.2L88.7,26.7L91.9,24.9L91.9,22.4L52.3,0.1L0,29.5L0,32.7L52.3,62.1L98.9,35.8L98.9,46.6Z" style="fill:rgb(238,61,44);fill-rule:nonzero;"/>
        </g>
    </g>
</svg>
